<svg xmlns="http://www.w3.org/2000/svg" width="32" height="32" viewBox="0 0 32 32" fill="none">
  <rect width="32" height="32" rx="8" fill="#0F2C59"/>
  <path d="M6 20.5H26V22.5C26 23.605 25.105 24.5 24 24.5H8C6.895 24.5 6 23.605 6 22.5V20.5Z" fill="#F5C242"/>
  <path d="M7 14.5H25L26 20.5H6L7 14.5Z" fill="#F5C242"/>
  <path d="M10 11.5C10 10.395 10.895 9.5 12 9.5H20C21.105 9.5 22 10.395 22 11.5V14.5H10V11.5Z" fill="#F5C242"/>
  <circle cx="10" cy="22.5" r="1.5" fill="#0F2C59"/>
  <circle cx="22" cy="22.5" r="1.5" fill="#0F2C59"/>
  <path d="M14 17.5L16 15.5L18 17.5" stroke="#0F2C59" stroke-width="1.5" stroke-linecap="round" stroke-linejoin="round"/>
</svg>